<svg xmlns="http://www.w3.org/2000/svg" version="1.1" xmlns:xlink="http://www.w3.org/1999/xlink" xmlns:svgjs="http://svgjs.com/svgjs" width="1700" height="1080" preserveAspectRatio="none" viewBox="0 0 1700 1080"><g mask="url(&quot;#SvgjsMask2504&quot;)" fill="none"><rect width="1700" height="1080" x="0" y="0" fill="url(#SvgjsRadialGradient2505)"></rect><path d="M1700 0L1362.19 0L1700 287.36z" fill="rgba(255, 255, 255, .1)"></path><path d="M1362.19 0L1700 287.36L1700 373.31L783.8800000000001 0z" fill="rgba(255, 255, 255, .075)"></path><path d="M783.8800000000001 0L1700 373.31L1700 814.1L449.4000000000001 0z" fill="rgba(255, 255, 255, .05)"></path><path d="M449.4000000000001 0L1700 814.1L1700 823.47L131.1400000000001 0z" fill="rgba(255, 255, 255, .025)"></path><path d="M0 1080L702.43 1080L0 649.24z" fill="rgba(0, 0, 0, .1)"></path><path d="M0 649.24L702.43 1080L946.81 1080L0 411.63z" fill="rgba(0, 0, 0, .075)"></path><path d="M0 411.63L946.81 1080L1204.26 1080L0 329.32z" fill="rgba(0, 0, 0, .05)"></path><path d="M0 329.31999999999994L1204.26 1080L1304.67 1080L0 180.24999999999994z" fill="rgba(0, 0, 0, .025)"></path></g><defs><mask id="SvgjsMask2504"><rect width="1700" height="1080" fill="#ffffff"></rect></mask><radialGradient cx="0%" cy="100%" r="2014.05" gradientUnits="userSpaceOnUse" id="SvgjsRadialGradient2505"><stop stop-color="rgba(14, 42, 71, 1)" offset="0"></stop><stop stop-color="rgba(66, 36, 63, 1)" offset="1"></stop></radialGradient></defs></svg>